PathFileType	4	(X/Y/Z)
DataRate	CameraRate	NumFrames	NumMarkers	Units	OrigDataRate	OrigDataStartFrame	OrigNumFrames
120	120	4	142	mm	120	1	553	
Frame#	Time	 STRN			 T1			 T8			 T10			 T12			 C7			 CLAV			 LANK			 RANK			 LANI			 RANI			 LASI			 RASI			 LPSI			 RPSI			 LSHO			 RSHO			 LTOE			 RTOE			 RHEE			 LHEE			 LKNE			 RKNE			 LKNI			 RKNI			 RIWR			 LIWR			 RELB			 LELB			 RELBIN			 LELBIN			 LOWR			 ROWR			 RCLAV			 LCLAV			 RFHD			 LBHD			 LFHD			 RBHD			 LMT1			 LMT5			 RMT1			 RMT5			 Tracking_L5			 Tracking_L4			 Tracking_L3			 Tracking_L2			 Tracking_L1			 Tracking_T11			 Tracking_T9			 Tracking_T7			 Tracking_T6			 Tracking_T5			 Tracking_T4			 Tracking_T3			 Tracking_T2			 rthumb			 rindex			 rmiddle			 rring			 rpinky			 lthumb			 lindex			 lmiddle			 lring			 lpinky			 ROOT			 Spine1			 Spine2			 Spine3			 LHIPJ			 RHIPJ			 LKJC			 RKJC			 LAJC			 RAJC			 LFOOT			 RFOOT			 NECK			 LCOL			 RCOL			 HEAD			 LSHOULDER			 RSHOULDER			 LELC			 RELC			 LWRIST			 RWRIST			 left_index1			 left_index2			 left_index3			 left_middle1			 left_middle2			 left_middle3			 left_pinky1			 left_pinky2			 left_pinky3			 left_ring1			 left_ring2			 left_ring3			 left_thumb1			 left_thumb2			 left_thumb3			 right_index1			 right_index2			 right_index3			 right_middle1			 right_middle2			 right_middle3			 right_pinky1			 right_pinky2			 right_pinky3			 right_ring1			 right_ring2			 right_ring3			 right_thumb1			 right_thumb2			 right_thumb3			 MASI			 MPSI			 MHIPJ			 CENTER			 Virtual_LWRIST			 Virtual_RWRIST			 Virtual_LAJC			 Virtual_RAJC			 Virtual_LKJC			 Virtual_RKJC			 Virtual_LELC			 Virtual_RELC			 Virtual_Ground_RAJC			 Virtual_Ground_LAJC			 Virtual_Ground_RFOOT			 Virtual_Ground_LFOOT			 Virtual_Ground_RTOE			 Virtual_Ground_LTOE			 Virtual_Ground_RMT1			 Virtual_Ground_LMT1			 Virtual_Ground_RMT5			 Virtual_Ground_LMT5			 Virtual_Ground_RHEE			 Virtual_Ground_LHEE		
		X1	Y1	Z1	X2	Y2	Z2	X3	Y3	Z3	X4	Y4	Z4	X5	Y5	Z5	X6	Y6	Z6	X7	Y7	Z7	X8	Y8	Z8	X9	Y9	Z9	X10	Y10	Z10	X11	Y11	Z11	X12	Y12	Z12	X13	Y13	Z13	X14	Y14	Z14	X15	Y15	Z15	X16	Y16	Z16	X17	Y17	Z17	X18	Y18	Z18	X19	Y19	Z19	X20	Y20	Z20	X21	Y21	Z21	X22	Y22	Z22	X23	Y23	Z23	X24	Y24	Z24	X25	Y25	Z25	X26	Y26	Z26	X27	Y27	Z27	X28	Y28	Z28	X29	Y29	Z29	X30	Y30	Z30	X31	Y31	Z31	X32	Y32	Z32	X33	Y33	Z33	X34	Y34	Z34	X35	Y35	Z35	X36	Y36	Z36	X37	Y37	Z37	X38	Y38	Z38	X39	Y39	Z39	X40	Y40	Z40	X41	Y41	Z41	X42	Y42	Z42	X43	Y43	Z43	X44	Y44	Z44	X45	Y45	Z45	X46	Y46	Z46	X47	Y47	Z47	X48	Y48	Z48	X49	Y49	Z49	X50	Y50	Z50	X51	Y51	Z51	X52	Y52	Z52	X53	Y53	Z53	X54	Y54	Z54	X55	Y55	Z55	X56	Y56	Z56	X57	Y57	Z57	X58	Y58	Z58	X59	Y59	Z59	X60	Y60	Z60	X61	Y61	Z61	X62	Y62	Z62	X63	Y63	Z63	X64	Y64	Z64	X65	Y65	Z65	X66	Y66	Z66	X67	Y67	Z67	X68	Y68	Z68	X69	Y69	Z69	X70	Y70	Z70	X71	Y71	Z71	X72	Y72	Z72	X73	Y73	Z73	X74	Y74	Z74	X75	Y75	Z75	X76	Y76	Z76	X77	Y77	Z77	X78	Y78	Z78	X79	Y79	Z79	X80	Y80	Z80	X81	Y81	Z81	X82	Y82	Z82	X83	Y83	Z83	X84	Y84	Z84	X85	Y85	Z85	X86	Y86	Z86	X87	Y87	Z87	X88	Y88	Z88	X89	Y89	Z89	X90	Y90	Z90	X91	Y91	Z91	X92	Y92	Z92	X93	Y93	Z93	X94	Y94	Z94	X95	Y95	Z95	X96	Y96	Z96	X97	Y97	Z97	X98	Y98	Z98	X99	Y99	Z99	X100	Y100	Z100	X101	Y101	Z101	X102	Y102	Z102	X103	Y103	Z103	X104	Y104	Z104	X105	Y105	Z105	X106	Y106	Z106	X107	Y107	Z107	X108	Y108	Z108	X109	Y109	Z109	X110	Y110	Z110	X111	Y111	Z111	X112	Y112	Z112	X113	Y113	Z113	X114	Y114	Z114	X115	Y115	Z115	X116	Y116	Z116	X117	Y117	Z117	X118	Y118	Z118	X119	Y119	Z119	X120	Y120	Z120	X121	Y121	Z121	X122	Y122	Z122	X123	Y123	Z123	X124	Y124	Z124	X125	Y125	Z125	X126	Y126	Z126	X127	Y127	Z127	X128	Y128	Z128	X129	Y129	Z129	X130	Y130	Z130	X131	Y131	Z131	X132	Y132	Z132	X133	Y133	Z133	X134	Y134	Z134	X135	Y135	Z135	X136	Y136	Z136	X137	Y137	Z137	X138	Y138	Z138	X139	Y139	Z139	X140	Y140	Z140	X141	Y141	Z141	X142	Y142	Z142

1	0.0000	291.731805	-356.090039	1174.320698	300.099045	-164.126933	1458.856344	295.399517	-79.509646	1260.516405	292.368472	-83.004735	1208.683372	288.856119	-92.776805	1156.196475	300.313056	-178.992182	1473.135352	293.744892	-305.355340	1379.829407	500.167131	-161.570087	54.708760	168.311939	-145.351484	49.141031	435.416669	-169.219151	68.837985	230.245158	-155.354947	71.194991	409.044415	-286.652029	904.096425	141.104862	-282.969803	905.097306	342.735946	-69.232181	986.802697	222.407773	-69.839828	991.320550	436.482221	-243.124858	1419.606328	155.943945	-236.063525	1424.118757	507.737160	-343.081176	-3.771263	162.404060	-328.444153	-1.112359	226.202413	-97.406492	-10.854977	455.941111	-106.766522	-8.726853	477.364093	-219.740987	470.182925	121.088400	-226.056352	455.695689	372.359723	-239.869162	451.953858	232.707784	-242.783561	453.856230	-50.599430	-237.393275	820.638716	630.533040	-258.049101	806.767642	-9.817931	-182.102337	1082.657576	596.899569	-204.797268	1074.117303	74.439943	-161.925361	1047.453165	515.290082	-175.009295	1042.401791	655.698180	-204.952240	816.949487	-66.908181	-178.186968	825.951099	219.006479	-285.703242	1393.870354	371.010154	-291.490048	1390.673399	242.348313	-341.766417	1650.942087	358.496100	-226.848677	1686.163783	343.499482	-355.464935	1652.757645	258.280665	-212.244540	1683.654428	496.169657	-289.743781	16.565187	559.714496	-252.473027	3.900034	170.136571	-276.665986	18.421752	101.643428	-237.939611	-1.035946	281.802773	-85.253164	1025.971651	282.364666	-93.325302	1050.611258	283.847243	-99.706933	1079.154849	284.964710	-100.766748	1105.389357	286.746532	-97.568616	1130.525589	290.862501	-87.721832	1181.819797	294.023037	-80.184408	1235.327363	296.180159	-80.814652	1283.483267	298.239917	-88.906378	1324.354768	299.382478	-100.397870	1357.725620	299.874723	-121.421203	1401.189208	300.074548	-135.614768	1424.445033	300.207227	-149.515018	1442.583084	-4.178020	-233.359531	682.710171	-33.416931	-205.307350	649.914265	-40.475909	-178.591564	651.386321	-39.691988	-164.155424	670.048892	-46.472315	-145.523533	691.082537	594.007492	-231.791988	669.407308	615.858912	-206.184939	646.749556	626.775265	-183.819607	648.342311	629.980683	-172.848120	667.768776	643.447161	-159.144565	691.005766	279.760599	-204.732582	917.567909	287.209779	-163.778648	1043.351889	296.314597	-210.226312	1169.029951	295.372337	-224.486127	1220.345616	338.730693	-187.169850	834.152937	214.069366	-193.836138	828.581989	436.706066	-224.935606	466.369182	162.479550	-230.371788	452.280968	457.183391	-173.234716	44.441205	215.741351	-157.603189	44.127505	536.520481	-275.673956	-10.361093	131.452203	-266.929299	-6.633299	289.495379	-232.980803	1431.507349	371.107936	-231.331810	1334.761739	216.486320	-220.234767	1338.636398	297.133595	-288.007081	1508.170128	502.769947	-226.286754	1305.315733	93.374103	-222.513363	1317.748189	554.395795	-187.273428	1055.902600	34.947511	-169.866696	1065.215707	642.249942	-228.808805	806.518018	-57.109658	-203.552112	813.672304	648.754120	-242.277250	699.244916	646.765530	-237.152740	666.550756	632.605910	-222.146109	655.714273	667.651057	-225.481376	695.774317	665.292382	-212.969258	666.423976	649.011135	-197.521999	656.130016	680.788279	-187.248096	725.192845	676.343441	-175.470367	709.115744	662.048161	-165.216506	700.064361	677.466512	-204.581305	710.579038	671.165645	-194.763333	683.347702	652.703822	-181.819320	673.567355	618.722141	-238.337353	756.548524	604.273438	-239.322737	728.174150	602.356613	-242.116019	701.089084	-69.283307	-229.597077	709.458649	-68.656474	-227.188900	675.588846	-52.774135	-215.590775	662.740827	-85.688829	-208.449513	704.246819	-82.676083	-199.408963	673.519373	-64.310670	-188.423768	661.470830	-88.810414	-164.016813	728.751481	-82.152069	-154.564321	711.954057	-66.323042	-148.260728	702.052891	-90.572536	-183.395833	716.501713	-84.398568	-176.984206	688.230217	-64.132899	-168.250874	677.077115	-35.955254	-225.841746	767.135918	-20.904545	-231.067136	738.915205	-18.472109	-235.546634	711.538374	275.074638	-284.810916	904.596865	282.571860	-69.536004	989.061624	276.400030	-190.502994	831.367463	278.823249	-177.173460	946.829244	643.115610	-231.500670	811.858565	-58.753805	-207.790121	823.294908	467.791900	-165.394619	61.773373	199.278548	-150.353216	60.168011	424.861908	-229.805075	461.068392	176.898092	-234.419957	454.775959	556.094825	-189.903282	1058.259547	32.311006	-172.013849	1065.055370	199.278548	-739.163160	60.168011	467.791900	-739.163160	61.773373	131.452203	-739.163160	-6.633299	536.520481	-739.163160	-10.361093	162.404060	-739.163160	-1.112359	507.737160	-739.163160	-3.771263	170.136571	-739.163160	18.421752	496.169657	-739.163160	16.565187	101.643428	-739.163160	-1.035946	559.714496	-739.163160	3.900034	226.202413	-739.163160	-10.854977	455.941111	-739.163160	-8.726853
2	0.0083	289.741158	-355.927318	1173.974514	297.629029	-164.332017	1458.712935	293.154657	-79.412661	1260.518432	290.212840	-82.827404	1208.660722	286.799222	-92.529163	1156.134129	297.845006	-179.188699	1472.964287	291.434735	-305.436194	1379.522920	499.862850	-161.723331	55.039052	168.094277	-145.455390	49.105410	435.103387	-169.401929	69.105268	230.014116	-155.390128	71.200252	407.262743	-286.224991	904.133976	139.320910	-282.613754	904.957771	340.894252	-68.773374	986.732900	220.561683	-69.406465	991.228819	434.052020	-243.254051	1419.655561	153.606966	-236.387029	1423.812747	507.524729	-343.011767	-3.785131	162.358955	-328.675926	-0.852463	225.903183	-97.529970	-10.962424	455.654889	-106.783278	-8.296487	476.492763	-220.511630	470.452338	119.990796	-226.138607	455.485582	371.530712	-240.596309	451.997936	231.603965	-242.785946	453.881383	-49.250215	-238.810673	819.636881	627.488792	-259.156644	807.012439	-10.612399	-182.793453	1081.757069	594.212711	-205.176234	1074.168682	73.683992	-161.987409	1047.092438	512.594938	-175.344065	1042.529941	652.626991	-205.990270	816.923320	-66.091508	-179.725572	824.684262	216.716245	-285.876095	1393.515468	368.633747	-291.578591	1390.524864	239.300787	-341.998219	1650.562525	355.562419	-227.320984	1686.162233	340.431809	-355.880141	1652.599216	255.373478	-212.547690	1683.443189	495.962471	-289.744020	16.605498	559.484184	-252.432942	4.004242	170.074940	-276.845723	18.633129	101.509720	-238.204971	-0.770209	279.952496	-84.837973	1025.888085	280.493528	-92.933647	1050.529242	281.936079	-99.345200	1079.071879	283.007860	-100.447990	1105.308533	284.740657	-97.285189	1130.452037	288.755298	-87.505624	1181.778193	291.820407	-80.045864	1235.319138	293.897748	-80.757417	1283.491015	295.898557	-88.923626	1324.360371	296.998262	-100.468524	1357.713580	297.429681	-121.557645	1401.130199	297.613174	-135.779738	1424.360275	297.737092	-149.698630	1442.475915	-1.994283	-234.877303	682.041347	-31.262368	-207.183316	648.953438	-38.558573	-180.509046	650.276363	-38.010031	-166.013017	668.894470	-45.081288	-147.362158	689.826667	590.590417	-233.640924	669.666469	612.381399	-208.145097	646.799743	623.280168	-185.736850	648.255944	626.510739	-174.650922	667.616248	640.003979	-160.806075	690.770090	277.989775	-204.352304	917.439520	285.405457	-163.401693	1043.226600	294.261485	-210.079402	1168.837190	293.254614	-224.379346	1220.140457	336.973667	-186.775357	834.037304	212.314770	-193.464875	828.440547	435.801715	-225.639537	466.596246	161.356106	-230.403915	452.092946	456.935525	-173.367381	44.770960	215.578362	-157.647565	44.063810	536.311746	-275.619417	-10.323462	131.391555	-267.211437	-6.353018	287.066609	-233.194128	1431.280136	368.822575	-231.362894	1334.659100	214.190364	-220.341429	1338.319659	294.537753	-288.183600	1507.985830	500.560164	-226.380423	1305.542111	91.078579	-222.885624	1317.459583	551.700950	-187.596485	1055.993319	34.150749	-170.179591	1064.597368	639.199197	-229.899511	806.612611	-56.025475	-205.042318	812.533557	645.462811	-243.895456	699.392676	643.386424	-238.938019	666.678250	629.176855	-224.008009	655.801415	664.324760	-227.087751	695.791781	661.874831	-214.726642	666.384935	645.544291	-199.356601	656.053603	677.473605	-188.687012	724.986196	672.971070	-176.996991	708.861172	658.637643	-166.810945	699.793577	674.143493	-206.098422	710.467517	667.760849	-196.426943	683.202803	649.254858	-183.560938	673.402965	615.564525	-239.715144	756.749153	601.048231	-240.865305	728.415549	599.069774	-243.797317	701.349556	-67.313910	-231.547669	708.336294	-66.488236	-229.252085	674.462914	-50.618380	-217.569247	661.676407	-83.857238	-210.553110	702.944696	-80.720127	-201.595008	672.205567	-62.367499	-190.501988	660.236597	-87.498873	-166.062579	727.272034	-80.809563	-156.614393	710.484505	-64.968884	-150.216073	700.663030	-89.023948	-185.497776	715.079606	-82.720190	-179.134130	686.825871	-62.454849	-170.274258	675.772429	-34.390360	-227.319822	766.212881	-19.115807	-232.519999	738.107979	-16.470404	-237.074539	710.763276	273.291826	-284.419373	904.545873	280.727968	-69.089919	988.980860	274.644218	-190.120116	831.238925	277.009897	-176.754646	946.763366	640.057892	-232.573457	811.967880	-57.670861	-209.268123	822.160572	467.483118	-165.562630	62.072160	199.054196	-150.422759	60.152831	424.011737	-230.553970	461.225137	175.797381	-234.462276	454.683483	553.403825	-190.260150	1058.349311	31.535796	-172.390431	1064.424753	199.054196	-739.163160	60.152831	467.483118	-739.163160	62.072160	131.391555	-739.163160	-6.353018	536.311746	-739.163160	-10.323462	162.358955	-739.163160	-0.852463	507.524729	-739.163160	-3.785131	170.074940	-739.163160	18.633129	495.962471	-739.163160	16.605498	101.509720	-739.163160	-0.770209	559.484184	-739.163160	4.004242	225.903183	-739.163160	-10.962424	455.654889	-739.163160	-8.296487
3	0.0167	287.738323	-355.601043	1173.649073	295.094192	-164.442495	1458.624721	290.918440	-79.182990	1260.597587	288.069904	-82.509540	1208.704829	284.750074	-92.141204	1156.123996	295.315415	-179.295406	1472.840309	289.059430	-305.411011	1379.242659	499.512196	-161.744252	55.490345	167.953610	-145.457432	49.030751	434.756547	-169.464782	69.507986	229.848862	-155.343488	71.222812	405.478776	-285.664886	904.227257	137.525842	-282.155097	904.854298	339.027405	-68.202458	986.693501	218.691111	-68.880923	991.179824	431.588262	-243.294284	1419.719219	151.171610	-236.586377	1423.450947	507.254601	-342.850059	-3.605692	162.386134	-328.794211	-0.615625	225.783601	-97.588755	-11.062292	455.318689	-106.689148	-7.753341	475.739509	-221.423790	470.832139	118.827067	-225.971416	455.285639	370.829403	-241.514131	452.142119	230.435491	-242.579535	453.938037	-47.713511	-240.318909	818.403304	624.227464	-260.410219	807.161808	-11.537664	-183.512688	1080.694556	591.526151	-205.551788	1074.152827	72.786354	-162.067875	1046.602964	509.871066	-175.727680	1042.610168	649.343371	-207.169905	816.753089	-65.172695	-181.389213	823.190391	214.349389	-285.932988	1393.160582	366.201311	-291.574806	1390.419722	236.176357	-342.116147	1650.219679	352.563351	-227.679834	1686.186552	337.286621	-356.177628	1652.491570	252.405584	-212.726265	1683.242798	495.694727	-289.638489	16.811164	559.179783	-252.291858	4.247101	170.067385	-276.915997	18.810065	101.473220	-238.343880	-0.652639	278.087050	-84.318094	1025.839806	278.611660	-92.435911	1050.483942	280.018449	-98.870464	1079.028964	281.048626	-100.004606	1105.269313	282.736331	-96.868001	1130.423427	286.658555	-87.148592	1181.796193	289.630502	-79.771340	1235.384345	291.618377	-80.571286	1283.577442	293.544769	-88.820904	1324.446678	294.587880	-100.427084	1357.779145	294.941425	-121.589698	1401.142001	295.098782	-135.843933	1424.339533	295.206457	-149.784982	1442.427158	0.335910	-236.313239	681.107044	-28.985672	-209.027305	647.757888	-36.565416	-182.419375	648.948014	-36.275081	-167.876869	667.522013	-43.671004	-149.231210	688.358188	586.966932	-235.718891	669.799864	608.673096	-210.352823	646.719754	619.549513	-187.910601	648.025930	622.807741	-176.701441	667.309642	636.333942	-162.707061	690.359652	276.205599	-203.866377	917.351961	283.588707	-162.916735	1043.141246	292.210937	-209.779635	1168.699145	291.132003	-224.143013	1219.983220	335.198134	-186.270252	833.959818	210.542083	-192.995787	828.342438	435.010016	-226.502374	466.932178	160.177514	-230.207190	451.941639	456.650645	-173.370227	45.240074	215.480372	-157.616794	44.027954	536.027133	-275.475115	-10.126201	131.406650	-267.363757	-6.178943	284.570515	-233.313367	1431.096435	366.497904	-231.296346	1334.624410	211.856171	-220.326230	1338.027954	291.885346	-288.280219	1507.833481	498.284400	-226.404712	1305.713892	88.775821	-223.152384	1317.019224	548.997104	-187.961474	1056.025028	33.202641	-170.539811	1063.836336	635.918200	-231.133625	806.591392	-54.782324	-206.629023	811.171412	641.940594	-245.739713	699.439049	639.777660	-240.974143	666.701734	625.520766	-226.126894	655.773580	660.770178	-228.926942	695.695221	658.231378	-216.739237	666.223645	641.854227	-201.451749	655.843675	673.936248	-190.340102	724.635363	669.378102	-178.749621	708.454192	655.008376	-168.635979	699.362993	670.595169	-207.839653	710.225582	664.132655	-198.334605	682.921171	645.584881	-185.551062	673.092425	612.176061	-241.269752	756.843269	597.592473	-242.603585	728.552282	595.552325	-245.694563	701.508582	-65.165244	-233.569369	706.991553	-64.155482	-231.370404	673.116744	-48.326246	-219.567552	660.390258	-81.886016	-212.759703	701.433122	-78.651302	-203.865573	670.685530	-60.338520	-192.624912	658.793509	-86.124621	-168.233126	725.597262	-79.428278	-158.769876	708.821058	-63.593082	-152.242362	699.075997	-87.379090	-187.720373	713.457167	-80.967002	-181.380883	685.222447	-60.724728	-172.351107	674.264669	-32.640748	-228.830203	765.053868	-17.142884	-233.962849	737.059057	-14.284424	-238.575056	709.745467	271.502309	-283.909991	904.540777	278.859258	-68.541691	988.936663	272.870108	-189.633019	831.151128	275.180783	-176.225841	946.738720	636.785418	-233.790062	811.957449	-56.443103	-210.854061	820.796847	467.134371	-165.604517	62.499166	198.901236	-150.400460	60.126781	423.284456	-231.468961	461.487129	174.631279	-234.275475	454.611838	550.698608	-190.639734	1058.381498	30.624345	-172.790281	1063.648760	198.901236	-739.163160	60.126781	467.134371	-739.163160	62.499166	131.406650	-739.163160	-6.178943	536.027133	-739.163160	-10.126201	162.386134	-739.163160	-0.615625	507.254601	-739.163160	-3.605692	170.067385	-739.163160	18.810065	495.694727	-739.163160	16.811164	101.473220	-739.163160	-0.652639	559.179783	-739.163160	4.247101	225.783601	-739.163160	-11.062292	455.318689	-739.163160	-7.753341
4	0.0250	285.738051	-355.250031	1173.328519	292.526931	-164.460182	1458.523512	288.668692	-78.924805	1260.648012	285.918504	-82.177430	1208.734989	282.695115	-91.742322	1156.116128	292.755902	-179.311052	1472.712517	286.659896	-305.311054	1378.980041	499.148011	-161.678538	56.024048	167.827517	-145.364031	48.947547	434.399575	-169.441953	69.989532	229.696631	-155.203208	71.240991	403.733969	-285.028934	904.344559	135.786548	-281.684935	904.724658	337.147087	-67.577578	986.679435	216.803446	-68.331718	991.139472	429.117739	-243.258849	1419.755340	148.683012	-236.708179	1423.034668	506.988466	-342.607021	-3.339199	162.427753	-328.792781	-0.451234	225.693807	-97.537220	-11.149433	454.981923	-106.502429	-7.130054	475.044131	-222.416207	471.270293	117.686406	-225.745127	455.078453	370.187372	-242.503807	452.343285	229.289338	-242.292807	453.982294	-46.048846	-241.946653	817.058861	620.704174	-261.820763	807.166398	-12.458472	-184.273854	1079.511404	588.752210	-206.023693	1074.025869	71.881056	-162.182227	1046.001792	507.072747	-176.161394	1042.598605	645.892441	-208.561748	816.466212	-64.180702	-183.198884	821.578443	211.949423	-285.915941	1392.801642	363.747060	-291.496187	1390.326142	233.027935	-342.150539	1649.881482	349.571496	-227.980897	1686.218381	334.115326	-356.408387	1652.370095	249.447286	-212.827966	1683.065057	495.416850	-289.450496	17.104061	558.866024	-252.065420	4.591319	170.067832	-276.877314	18.937083	101.448908	-238.366857	-0.588623	276.211202	-83.761968	1025.809526	276.720852	-91.908373	1050.456166	278.093398	-98.374248	1079.002142	279.082954	-99.545032	1105.243087	280.726194	-96.437439	1130.404949	284.555078	-86.780921	1181.808949	287.429988	-79.476349	1235.427380	289.322138	-80.348589	1283.631086	291.168809	-88.666268	1324.497819	292.151302	-100.324154	1357.811689	292.424262	-121.546477	1401.125312	292.552918	-135.826156	1424.293518	292.642802	-149.783447	1442.356586	2.864333	-237.769201	680.086374	-26.510743	-210.923865	646.468341	-34.403589	-184.393093	647.528291	-34.399536	-169.810146	666.060746	-42.151835	-151.184663	686.800361	583.132386	-237.732604	669.800103	604.791045	-212.517813	646.542072	615.689278	-190.069690	647.721529	618.999422	-178.763136	666.940033	632.588387	-164.672881	689.899564	274.447113	-203.334317	917.265475	281.765759	-162.394419	1043.061733	290.159345	-209.461078	1168.558836	289.005786	-223.886862	1219.823837	333.458602	-185.697839	833.895326	208.808079	-192.488909	828.234851	434.284866	-227.444962	467.314392	159.022138	-229.946628	451.781452	456.346929	-173.282787	45.775268	215.392575	-157.490104	43.990109	535.736561	-275.246561	-9.831813	131.425291	-267.389089	-6.062296	282.044321	-233.347967	1430.911422	364.155054	-231.173292	1334.598780	209.503621	-220.256403	1337.722063	289.194316	-288.284779	1507.685423	495.972216	-226.401344	1305.808306	86.472303	-223.386243	1316.470623	546.215832	-188.401371	1055.956841	32.248054	-170.941189	1062.960744	632.420242	-232.552156	806.445837	-53.437259	-208.346322	809.697628	638.173759	-247.668222	699.349463	635.934830	-243.055865	666.595340	621.661365	-228.250816	655.631661	657.005370	-230.885997	695.480764	654.403389	-218.835905	665.958107	638.011277	-203.586608	655.545652	670.266926	-192.171752	724.206328	665.677369	-180.654764	707.981706	651.292384	-170.574516	698.877513	666.879416	-209.736913	709.887564	660.357177	-200.356588	682.554245	641.794145	-187.607139	672.710061	608.551204	-242.907181	756.803632	593.898356	-244.364843	728.554606	591.790736	-247.582152	701.530814	-62.822938	-235.698357	705.530465	-61.612096	-233.584777	671.656787	-45.831617	-221.641317	659.001172	-79.738408	-215.093642	699.800313	-76.398641	-206.251442	669.048965	-58.134105	-194.839880	657.245934	-84.636688	-170.548752	723.805487	-77.935129	-161.058798	707.046449	-62.109467	-154.381752	697.387636	-85.591763	-190.083370	711.714387	-79.063058	-183.752805	683.504343	-58.850642	-174.527645	672.654748	-30.741362	-230.428919	763.793111	-15.000669	-235.467061	735.916853	-11.908678	-240.124717	708.636463	269.760258	-283.356935	904.534608	276.975267	-67.954648	988.909453	271.133341	-189.093374	831.065089	273.367763	-175.655792	946.722031	633.298308	-235.191256	811.816305	-55.114774	-212.572768	819.318652	466.773793	-165.560246	63.006790	198.762074	-150.283620	60.094269	422.615752	-232.460007	461.806789	173.487872	-234.018967	454.530373	547.912478	-191.092543	1058.312237	29.711292	-173.228040	1062.756598	198.762074	-739.163160	60.094269	466.773793	-739.163160	63.006790	131.425291	-739.163160	-6.062296	535.736561	-739.163160	-9.831813	162.427753	-739.163160	-0.451234	506.988466	-739.163160	-3.339199	170.067832	-739.163160	18.937083	495.416850	-739.163160	17.104061	101.448908	-739.163160	-0.588623	558.866024	-739.163160	4.591319	225.693807	-739.163160	-11.149433	454.981923	-739.163160	-7.130054
